ply
format ascii 1.0
comment Exported by Aspose.3D 21.5.1
element vertex 613
property float x
property float y
property float z
property float nx
property float ny
property float nz
element face 1230
property list uchar int vertex_index
end_header
9.914448738098145 50 -1.3052619695663452 -0.5918858885765076 0.4 0.09111675471067429
9.914448738098145 25 -1.3052619695663452 -0.9893220961093903 5.339715551825811E-19 0.13024672493338585
10 50 0 -0.4989294707775116 0.5 0.01090052103002866
10 25 1.2246467996456087E-15 -0.9978589415550232 0 0
9.914448738098145 50 1.3052619695663452 -0.4960838556289673 0.5 -0.054316096007823944
9.914448738098145 25 1.3052619695663452 -0.9893220961093903 1.0679431103651621E-18 -0.13024672493338585
9.659257888793945 50 2.5881905555725098 -0.48475010196367896 0.5 -0.11860335369904836
9.659257888793945 25 2.5881905555725098 -0.9638576805591583 0 -0.2582648992538452
9.238795280456543 50 3.8268344402313232 -0.3986761399677821 0.5714285714285714 -0.1550239494868687
9.238795280456543 25 3.8268344402313232 -0.9219014346599579 0 -0.3818640857934952
8.66025447845459 50 5 -0.5250430226325989 0.4 -0.2880295276641846
8.66025447845459 25 5 -0.864171177148819 0 -0.4989294707775116
7.933533191680908 50 6.087614059448242 -0.48295580148696904 0.4 -0.35409725904464723
7.933533191680908 25 6.087614059448242 -0.7916547060012817 0 -0.6074580252170563
7.071067810058594 50 7.071067810058594 -0.4326050877571106 0.4 -0.41410628557205204
7.071067810058594 25 7.071067810058594 -0.7055928111076355 0 -0.7055928111076355
6.087614059448242 50 7.933533191680908 -0.3748523712158203 0.4 -0.4670298457145691
6.087614059448242 25 7.933533191680908 -0.6074580252170563 0 -0.7916547060012817
5 50 8.66025447845459 -0.31068583726882937 0.4 -0.5119623899459839
5 25 8.66025447845459 -0.4989294707775116 0 -0.864171177148819
3.8268344402313232 50 9.238795280456543 -0.20100281139214832 0.5 -0.45677927136421204
3.8268344402313232 25 9.238795280456543 -0.3818640857934952 0 -0.9219014346599579
2.5881905555725098 50 9.659257888793945 -0.16759385466575624 0.4 -0.5749290943145752
2.5881905555725098 25 9.659257888793945 -0.2582648992538452 0 -0.9638576805591583
1.3052619695663452 50 9.914448738098145 -0.09111675471067429 0.4 -0.5918858885765076
1.3052619695663452 25 9.914448738098145 -0.13024672493338585 0 -0.9893220961093903
-6.123233998228043E-16 50 10 -0.01090052103002866 0.5 -0.4989294707775116
-6.123233998228043E-16 25 10 0 0 -0.9978589415550232
-1.3052619695663452 50 9.914448738098145 0.054316096007823944 0.5 -0.4960838556289673
-1.3052619695663452 25 9.914448738098145 0.13024672493338585 0 -0.9893220961093903
-2.5881905555725098 50 9.659257888793945 0.10166001745632716 0.5714285714285714 -0.4155000873974391
-2.5881905555725098 25 9.659257888793945 0.2582648992538452 0 -0.9638576805591583
-3.8268344402313232 50 9.238795280456543 0.1550239494868687 0.5714285714285714 -0.3986761399677821
-3.8268344402313232 25 9.238795280456543 0.3818640857934952 0 -0.9219014346599579
-5 50 8.66025447845459 0.24002460638682047 0.5 -0.4375358521938324
-5 25 8.66025447845459 0.4989294707775116 0 -0.864171177148819
-6.087614059448242 50 7.933533191680908 0.2529266136033194 0.5714285714285714 -0.3449684296335493
-6.087614059448242 25 7.933533191680908 0.6074580252170563 0 -0.7916547060012817
-7.071067810058594 50 7.071067810058594 0.34508857131004333 0.5 -0.36050423979759216
-7.071067810058594 25 7.071067810058594 0.7055928111076355 0 -0.7055928111076355
-7.933533191680908 50 6.087614059448242 0.3335927469389779 0.5714285714285714 -0.26775169372558594
-7.933533191680908 25 6.087614059448242 0.7916547060012817 0 -0.6074580252170563
-8.66025447845459 50 5 0.36568742138998844 0.5714285714285714 -0.22191845519202094
-8.66025447845459 25 5 0.864171177148819 -1.3094375251559705E-18 -0.4989294707775116
-9.238795280456543 50 3.8268344402313232 0.45677927136421204 0.5 -0.20100281139214832
-9.238795280456543 25 3.8268344402313232 0.9219014346599579 0 -0.3818640857934952
-9.659257888793945 50 2.5881905555725098 0.4106636387961251 0.5714285714285714 -0.11970989618982587
-9.659257888793945 25 2.5881905555725098 0.9638576805591583 9.516519938612986E-19 -0.2582648992538452
-9.914448738098145 50 1.3052619695663452 0.493238240480423 0.5 -0.0759306289255619
-9.914448738098145 25 1.3052619695663452 0.9893220961093903 0 -0.13024672493338585
-10 50 0 0.4276538320950099 0.5714285714285714 -0.009343303740024567
-10 25 0 0.9978589415550232 0 0
-9.914448738098145 50 -1.3052619695663452 0.42521473339625765 0.5714285714285714 0.04655665372099195
-9.914448738098145 25 -1.3052619695663452 0.9893220961093903 0 0.13024672493338585
-9.659257888793945 50 -2.5881905555725098 0.48475010196367896 0.5 0.11860335369904836
-9.659257888793945 25 -2.5881905555725098 0.9638576805591583 0 0.2582648992538452
-9.238795280456543 50 -3.8268344402313232 0.3986761399677821 0.5714285714285714 0.1550239494868687
-9.238795280456543 25 -3.8268344402313232 0.9219014346599579 0 0.3818640857934952
-8.66025447845459 50 -5 0.4375358521938324 0.5 0.24002460638682047
-8.66025447845459 25 -5 0.864171177148819 0 0.4989294707775116
-7.933533191680908 50 -6.087614059448242 0.3449684296335493 0.5714285714285714 0.2529266136033194
-7.933533191680908 25 -6.087614059448242 0.7916547060012817 0 0.6074580252170563
-7.071067810058594 50 -7.071067810058594 0.3090036341122218 0.5714285714285714 0.29579020398003714
-7.071067810058594 25 -7.071067810058594 0.7055928111076355 0 0.7055928111076355
-6.087614059448242 50 -7.933533191680908 0.3123769760131836 0.5 0.38919153809547424
-6.087614059448242 25 -7.933533191680908 0.6074580252170563 0 0.7916547060012817
-5 50 -8.66025447845459 0.22191845519202094 0.5714285714285714 0.36568742138998844
-5 25 -8.66025447845459 0.4989294707775116 0 0.864171177148819
-3.8268344402313232 50 -9.238795280456543 0.20100281139214832 0.5 0.45677927136421204
-3.8268344402313232 25 -9.238795280456543 0.3818640857934952 0 0.9219014346599579
-2.5881905555725098 50 -9.659257888793945 0.11970989618982587 0.5714285714285714 0.4106636387961251
-2.5881905555725098 25 -9.659257888793945 0.2582648992538452 0 0.9638576805591583
-1.3052619695663452 50 -9.914448738098145 0.0650833962219102 0.5714285714285714 0.4227756346975054
-1.3052619695663452 25 -9.914448738098145 0.13024672493338585 0 0.9893220961093903
-6.123233998228043E-16 50 -10 0.01090052103002866 0.5 0.4989294707775116
-6.123233998228043E-16 25 -10 0 0 0.9978589415550232
1.3052619695663452 50 -9.914448738098145 -0.04655665372099195 0.5714285714285714 0.42521473339625765
1.3052619695663452 25 -9.914448738098145 -0.13024672493338585 0 0.9893220961093903
2.5881905555725098 50 -9.659257888793945 -0.11860335369904836 0.5 0.48475010196367896
2.5881905555725098 25 -9.659257888793945 -0.2582648992538452 0 0.9638576805591583
3.8268344402313232 50 -9.238795280456543 -0.1550239494868687 0.5714285714285714 0.3986761399677821
3.8268344402313232 25 -9.238795280456543 -0.3818640857934952 0 0.9219014346599579
5 50 -8.66025447845459 -0.20573537690298896 0.5714285714285714 0.3750307304518563
5 25 -8.66025447845459 -0.4989294707775116 0 0.864171177148819
6.087614059448242 50 -7.933533191680908 -0.2950810492038727 0.5 0.4024631679058075
6.087614059448242 25 -7.933533191680908 -0.6074580252170563 0 0.7916547060012817
7.071067810058594 50 -7.071067810058594 -0.34508857131004333 0.5 0.36050423979759216
7.071067810058594 25 -7.071067810058594 -0.7055928111076355 0 0.7055928111076355
7.933533191680908 50 -6.087614059448242 -0.4670298457145691 0.4 0.3748523712158203
7.933533191680908 25 -6.087614059448242 -0.7916547060012817 0 0.6074580252170563
8.66025447845459 50 -5 -0.5119623899459839 0.4 0.31068583726882937
8.66025447845459 25 -5 -0.864171177148819 0 0.4989294707775116
9.238795280456543 50 -3.8268344402313232 -0.5481351256370545 0.4 0.241203373670578
9.238795280456543 25 -3.8268344402313232 -0.9219014346599579 0 0.3818640857934952
9.659257888793945 50 -2.5881905555725098 -0.5749290943145752 0.4 0.16759385466575624
9.659257888793945 25 -2.5881905555725098 -0.9638576805591583 0 0.2582648992538452
9.914448738098145 0 1.3052619695663452 -0.493238240480423 -0.5 -0.0759306289255619
10 0 -1.2246467996456087E-15 -0.4989294707775116 -0.5 -0.01090052103002866
9.914448738098145 0 -1.3052619695663452 -0.5953006267547608 -0.4 0.06517931520938873
9.659257888793945 0 -2.5881905555725098 -0.5817001223564148 -0.4 0.14232402443885803
9.238795280456543 0 -3.8268344402313232 -0.558146595954895 -0.4 0.21703352928161623
8.66025447845459 0 -5 -0.5250430226325989 -0.4 0.2880295276641846
7.933533191680908 0 -6.087614059448242 -0.48295580148696904 -0.4 0.35409725904464723
7.071067810058594 0 -7.071067810058594 -0.36050423979759216 -0.5 0.34508857131004333
6.087614059448242 0 -7.933533191680908 -0.3123769760131836 -0.5 0.38919153809547424
5 0 -8.66025447845459 -0.22191845519202094 -0.5714285714285714 0.36568742138998844
3.8268344402313232 0 -9.238795280456543 -0.17228812405041286 -0.5714285714285714 0.3915250897407532
2.5881905555725098 0 -9.659257888793945 -0.13966154555479685 -0.5 0.4791075785954793
1.3052619695663452 0 -9.914448738098145 -0.0650833962219102 -0.5714285714285714 0.4227756346975054
-6.123233998228043E-16 0 -10 -0.01090052103002866 -0.5 0.4989294707775116
-1.3052619695663452 0 -9.914448738098145 0.04655665372099195 -0.5714285714285714 0.42521473339625765
-2.5881905555725098 0 -9.659257888793945 0.10166001745632716 -0.5714285714285714 0.4155000873974391
-3.8268344402313232 0 -9.238795280456543 0.18086127440134683 -0.5 0.46512216329574585
-5 0 -8.66025447845459 0.20573537690298896 -0.5714285714285714 0.3750307304518563
-6.087614059448242 0 -7.933533191680908 0.2950810492038727 -0.5 0.4024631679058075
-7.071067810058594 0 -7.071067810058594 0.29579020398003714 -0.5714285714285714 0.3090036341122218
-7.933533191680908 0 -6.087614059448242 0.3335927469389779 -0.5714285714285714 0.26775169372558594
-8.66025447845459 0 -5 0.4266353249549866 -0.5 0.2589048643906911
-9.238795280456543 0 -3.8268344402313232 0.3915250897407532 -0.5714285714285714 0.17228812405041286
-9.659257888793945 0 -2.5881905555725098 0.4791075785954793 -0.5 0.13966154555479685
-9.914448738098145 0 -1.3052619695663452 0.4227756346975054 -0.5714285714285714 0.0650833962219102
-10 0 0 0.4276538320950099 -0.5714285714285714 0.009343303740024567
-9.914448738098145 0 1.3052619695663452 0.4960838556289673 -0.5 -0.054316096007823944
-9.659257888793945 0 2.5881905555725098 0.4155000873974391 -0.5714285714285714 -0.10166001745632716
-9.238795280456543 0 3.8268344402313232 0.46512216329574585 -0.5 -0.18086127440134683
-8.66025447845459 0 5 0.3750307304518563 -0.5714285714285714 -0.20573537690298896
-7.933533191680908 0 6.087614059448242 0.3449684296335493 -0.5714285714285714 -0.2529266136033194
-7.071067810058594 0 7.071067810058594 0.36050423979759216 -0.5 -0.34508857131004333
-6.087614059448242 0 7.933533191680908 0.26775169372558594 -0.5714285714285714 -0.3335927469389779
-5 0 8.66025447845459 0.2589048643906911 -0.5 -0.4266353249549866
-3.8268344402313232 0 9.238795280456543 0.17228812405041286 -0.5714285714285714 -0.3915250897407532
-2.5881905555725098 0 9.659257888793945 0.11970989618982587 -0.5714285714285714 -0.4106636387961251
-1.3052619695663452 0 9.914448738098145 0.0759306289255619 -0.5 -0.493238240480423
-6.123233998228043E-16 0 10 0.01090052103002866 -0.5 -0.4989294707775116
1.3052619695663452 0 9.914448738098145 -0.06517931520938873 -0.4 -0.5953006267547608
2.5881905555725098 0 9.659257888793945 -0.14232402443885803 -0.4 -0.5817001223564148
3.8268344402313232 0 9.238795280456543 -0.18086127440134683 -0.5 -0.46512216329574585
5 0 8.66025447845459 -0.2880295276641846 -0.4 -0.5250430226325989
6.087614059448242 0 7.933533191680908 -0.35409725904464723 -0.4 -0.48295580148696904
7.071067810058594 0 7.071067810058594 -0.41410628557205204 -0.4 -0.4326050877571106
7.933533191680908 0 6.087614059448242 -0.4670298457145691 -0.4 -0.3748523712158203
8.66025447845459 0 5 -0.5119623899459839 -0.4 -0.31068583726882937
9.238795280456543 0 3.8268344402313232 -0.3915250897407532 -0.5714285714285714 -0.17228812405041286
9.659257888793945 0 2.5881905555725098 -0.4791075785954793 -0.5 -0.13966154555479685
54.91502380371094 50 38.40559768676758 -0.49551989634831745 0.5 0.06189153032998244
54.91502380371094 25 38.40559768676758 -0.9929255247116089 0 0.10614283941686153
55 50 40 -0.4992913603782654 0.5 0.008870362614591915
55 25 40 -0.9985827207565308 0 0
54.91502380371094 50 41.59440231323242 -0.4263476814542498 0.5714285714285714 -0.03792969350303922
54.91502380371094 25 41.59440231323242 -0.9929255247116089 0 -0.10614283941686153
54.66105270385742 50 43.170738220214844 -0.48988408843676245 0.5 -0.09687159458796182
54.66105270385742 25 43.170738220214844 -0.976018100976944 0 -0.2110830321907997
54.240962982177734 50 44.711151123046875 -0.4768119851748148 0.5 -0.1483942816654841
54.240962982177734 25 44.711151123046875 -0.9480520188808441 0 -0.3136315643787384
53.659523010253906 50 46.19818115234375 -0.4583373963832855 0.5 -0.19823560615380603
53.659523010253906 25 46.19818115234375 -0.9093441069126129 0 -0.4126265347003937
52.923309326171875 50 47.614986419677734 -0.37257400580814903 0.5714285714285714 -0.21071215186800274
52.923309326171875 25 47.614986419677734 -0.8603329956531525 0 -0.5069462805986404
52.04067611694336 50 48.94551086425781 -0.40607697765032447 0.5 -0.2906407217184702
52.04067611694336 25 48.94551086425781 -0.8015739619731903 0 -0.5955221354961395
51.02161407470703 50 50.174678802490234 -0.37288325031598407 0.5 -0.33215752243995667
51.02161407470703 25 50.174678802490234 -0.7337327599525452 0 -0.6773504614830017
49.87767028808594 50 51.2885627746582 -0.2875410999570574 0.5714285714285714 -0.317066422530583
49.87767028808594 25 51.2885627746582 -0.6575780808925629 0 -0.751504123210907
48.62181091308594 50 52.274539947509766 -0.29424502452214557 0.5 -0.4034729202588399
48.62181091308594 25 52.274539947509766 -0.573972761631012 0 -0.8171429932117462
47.26826477050781 50 53.12144470214844 -0.24969152112801868 0.5 -0.4324635068575541
47.26826477050781 25 53.12144470214844 -0.48386411368846893 0 -0.8735232949256897
45.83236312866211 50 53.819679260253906 -0.173407644033432 0.5714285714285714 -0.39133208138602116
45.83236312866211 25 53.819679260253906 -0.38827309012413025 0 -0.9200062155723572
44.330379486083984 50 54.361331939697266 -0.15263406684001285 0.5 -0.4754717449347178
44.330379486083984 25 54.361331939697266 -0.28828277438879013 0 -0.9560650885105133
42.77933120727539 50 54.74026107788086 -0.10122981915871301 0.5 -0.4890020986398061
42.77933120727539 25 54.74026107788086 -0.1850261092185974 0 -0.9812913537025452
41.19679260253906 50 54.952178955078125 -0.0486785943309466 0.5 -0.4969918727874756
41.19679260253906 25 54.952178955078125 -0.07967302203178406 0 -0.9953992068767548
39.60069274902344 50 54.99468231201172 0.0037921518087387085 0.5714285714285714 -0.4280147382191249
39.60069274902344 25 54.99468231201172 0.026582792401313782 0 -0.9982287883758545
38.009117126464844 50 54.86729431152344 0.05747682352860768 0.5 -0.49605135122934974
38.009117126464844 25 54.86729431152344 0.13253741711378098 0 -0.9897480607032776
36.44009780883789 50 54.571449279785156 0.10987823208173116 0.5 -0.4871317148208618
36.44009780883789 25 54.571449279785156 0.2369903326034546 0 -0.9700530767440796
34.91141891479492 50 54.110504150390625 0.1380297201020377 0.5714285714285714 -0.40516514437539236
34.91141891479492 25 54.110504150390625 0.33875805139541626 0 -0.9393669962882996
33.440391540527344 50 53.489681243896484 0.21036653220653534 0.5 -0.4528978367646535
33.440391540527344 25 53.489681243896484 0.43668751418590546 0 -0.8980375230312347
32.04368591308594 50 52.71601486206055 0.25731486082077026 0.5 -0.4279714822769165
32.04368591308594 25 52.71601486206055 0.5296691507101059 0 -0.8465329110622406
30.737131118774414 50 51.798274993896484 0.25829803943634033 0.5714285714285714 -0.34131089278629845
30.737131118774414 25 51.798274993896484 0.6166494190692902 0 -0.785436749458313
29.535526275634766 50 50.74685287475586 0.34196616212526953 0.5 -0.36390888690948486
29.535526275634766 25 50.74685287475586 0.6966427862644196 -1.7402948131292225E-17 -0.7154412865638733
28.452489852905273 50 49.57366180419922 0.378710001707077 0.5 -0.32549850145975745
28.452489852905273 25 49.57366180419922 0.7687429189682007 0 -0.6373395919799805
27.50029182434082 50 48.29199981689453 0.4111629029115041 0.5 -0.2834000885486603
27.50029182434082 25 48.29199981689453 0.832132875919342 1.9012031695482095E-17 -0.5520165860652924
26.68971824645996 50 46.916385650634766 0.3762489897864205 0.5714285714285714 -0.2040776865822928
26.68971824645996 25 46.916385650634766 0.8860944211483002 0 -0.460438996553421
26.029956817626953 50 45.46240997314453 0.46177785595258075 0.5 -0.19008351365725198
26.029956817626953 25 45.46240997314453 0.9300161898136139 -4.497250406204776E-17 -0.36364445090293884
25.52848243713379 50 43.946537017822266 0.47936644156773883 0.4999999999999999 -0.13992267847061157
25.52848243713379 25 43.946537017822266 0.9634005129337311 0 -0.262729674577713
25.190975189208984 50 42.38595199584961 0.42130594594138004 0.5714285714285713 -0.07557981993470873
25.190975189208984 25 42.38595199584961 0.9858691096305847 4.6299125299385476E-17 -0.15883805602788925
25.021259307861328 50 40.79833221435547 0.4981116056442261 0.5 -0.035431161522865295
25.021259307861328 25 40.79833221435547 0.9971674084663391 0 -0.05314674228429794
25.021259307861328 50 39.20166778564453 0.5988669633865357 0.4 0.021258696913719177
25.021259307861328 25 39.20166778564453 0.9971674084663391 0 0.05314674228429794
25.190975189208984 50 37.61404800415039 0.5932146072387695 0.4 0.08479391932487489
25.190975189208984 25 37.61404800415039 0.9858691096305847 0 0.15883805602788925
25.52848243713379 50 36.053462982177734 0.5808408856391907 0.4 0.14736839532852172
25.52848243713379 25 36.053462982177734 0.9634005129337311 0 0.262729674577713
26.029956817626953 50 34.53759002685547 0.4682383338610331 0.5 0.17356093724568683
26.029956817626953 25 34.53759002685547 0.9300161898136139 0 0.36364445090293884
26.68971824645996 50 33.083614349365234 0.5365647196769715 0.4 0.26681803464889525
26.68971824645996 25 33.083614349365234 0.8860944211483002 0 0.460438996553421
27.50029182434082 50 31.707998275756836 0.5051639676094055 0.4 0.3223397970199585
27.50029182434082 25 31.707998275756836 0.832132875919342 0 0.5520165860652924
28.452489852905273 50 30.42633819580078 0.46803950071334843 0.4 0.3742093086242676
28.452489852905273 25 30.42633819580078 0.7687429189682007 0 0.6373395919799805
29.535526275634766 50 29.253149032592773 0.42561194896698 0.4 0.4218388795852661
29.535526275634766 25 29.253149032592773 0.6966427862644196 0 0.7154412865638733
30.737131118774414 50 28.20172691345215 0.3783620476722718 0.4 0.4646888494491577
30.737131118774414 25 28.20172691345215 0.6166494190692902 0 0.785436749458313
32.04368591308594 50 27.28398323059082 0.3268251478672028 0.4 0.5022737145423889
32.04368591308594 25 27.28398323059082 0.5296691507101059 0 0.8465329110622406
33.440391540527344 50 26.510318756103516 0.22632098197937012 0.5 0.4451396862665812
33.440391540527344 25 26.510318756103516 0.43668751418590546 0 0.8980375230312347
34.91141891479492 50 25.889495849609375 0.17772337794303894 0.5 0.4666743278503418
34.91141891479492 25 25.889495849609375 0.33875805139541626 1.367519804091042E-17 0.9393669962882996
36.44009780883789 50 25.428550720214844 0.12711210052172342 0.5 0.4829213619232178
36.44009780883789 25 25.428550720214844 0.2369903326034546 0 0.9700530767440796
38.009117126464844 50 25.132707595825195 0.06433765164443424 0.5714285714285714 0.42316860812050955
38.009117126464844 25 25.132707595825195 0.13253741711378098 -8.777037014602831E-18 0.9897480607032776
39.60069274902344 50 25.00531578063965 0.02659033834934235 0.4 0.5986539125442505
39.60069274902344 25 25.00531578063965 0.026582792401313782 0 0.9982287883758545
41.19679260253906 50 25.047819137573242 -0.030994427700837452 0.5 0.4984073340892792
41.19679260253906 25 25.047819137573242 -0.07967302203178406 -2.3475213730687514E-17 0.9953992068767548
42.77933120727539 50 25.25973892211914 -0.10055554807186128 0.3999999999999999 0.5907471060752869
42.77933120727539 25 25.25973892211914 -0.1850261092185974 0 0.9812913537025452
44.330379486083984 50 25.638669967651367 -0.16277844905853273 0.4 0.5767120122909546
44.330379486083984 25 25.638669967651367 -0.28828277438879013 2.3008081677721668E-17 0.9560650885105133
45.83236312866211 50 26.180320739746094 -0.2231570065021515 0.4 0.5561425447463989
45.83236312866211 25 26.180320739746094 -0.38827309012413025 0 0.9200062155723572
47.26826477050781 50 26.87855339050293 -0.2810071110725403 0.4 0.5292717456817627
47.26826477050781 25 26.87855339050293 -0.48386411368846893 0 0.8735232949256897
48.62181091308594 50 27.7254581451416 -0.33567328453063966 0.4 0.4964040875434876
48.62181091308594 25 27.7254581451416 -0.573972761631012 0 0.8171429932117462
49.87767028808594 50 28.71143913269043 -0.3865361571311951 0.4 0.45791195631027226
49.87767028808594 25 28.71143913269043 -0.6575780808925629 0 0.751504123210907
51.02161407470703 50 29.8253231048584 -0.36084950963656104 0.5 0.34519293904304504
51.02161407470703 25 29.8253231048584 -0.7337327599525452 0 0.6773504614830017
52.04067611694336 50 31.054489135742188 -0.3954969843228658 0.5 0.30488141377766925
52.04067611694336 25 31.054489135742188 -0.8015739619731903 0 0.5955221354961395
52.923309326171875 50 32.385013580322266 -0.36485427618026733 0.5714285714285714 0.22381323150226046
52.923309326171875 25 32.385013580322266 -0.8603329956531525 0 0.5069462805986404
53.659523010253906 50 33.80181884765625 -0.4510067105293274 0.5 0.21439092854658762
53.659523010253906 25 33.80181884765625 -0.9093441069126129 0 0.4126265347003937
54.240962982177734 50 35.288848876953125 -0.47124003370602924 0.5 0.16523728271325427
54.240962982177734 25 35.288848876953125 -0.9480520188808441 0 0.3136315643787384
54.66105270385742 50 36.829261779785156 -0.4166862964630127 0.5714285714285714 0.09789551794528961
54.66105270385742 25 36.829261779785156 -0.976018100976944 0 0.2110830321907997
54.91502380371094 0 41.59440231323242 -0.42473133972712923 -0.5714285714285714 -0.053049883139984946
55 0 40 -0.4992913603782654 -0.5 -0.008870362614591915
54.91502380371094 0 38.40559768676758 -0.4974056283632914 -0.5 0.04425130908687909
54.66105270385742 0 36.829261779785156 -0.41990064723151066 -0.5714285714285714 0.08303279536111013
54.240962982177734 0 35.288848876953125 -0.4768119851748148 -0.5 0.1483942816654841
53.659523010253906 0 33.80181884765625 -0.4583373963832855 -0.5 0.19823560615380603
52.923309326171875 0 32.385013580322266 -0.37257400580814903 -0.5714285714285714 0.21071215186800274
52.04067611694336 0 31.054489135742188 -0.40607697765032447 -0.5 0.2906407217184702
51.02161407470703 0 29.8253231048584 -0.37288325031598407 -0.5 0.33215752243995667
49.87767028808594 0 28.71143913269043 -0.4025575399398804 -0.4 0.4438929915428162
48.62181091308594 0 27.7254581451416 -0.35309402942657475 -0.4 0.48416750431060795
47.26826477050781 0 26.87855339050293 -0.2996298253536224 -0.4 0.518956208229065
45.83236312866211 0 26.180320739746094 -0.2427707016468048 -0.4 0.5478649139404297
44.330379486083984 0 25.638669967651367 -0.18316088020801546 -0.4 0.5705660939216614
42.77933120727539 0 25.25973892211914 -0.12147578299045564 -0.3999999999999999 0.5868025183677673
41.19679260253906 0 25.047819137573242 -0.0486785943309466 -0.5 0.4969918727874756
39.60069274902344 0 25.00531578063965 0.005309012532234193 -0.4 0.5992206335067749
38.009117126464844 0 25.132707595825195 0.049265848738806586 -0.5714285714285714 0.4251868724822998
36.44009780883789 0 25.428550720214844 0.10987823208173116 -0.5 0.4871317148208618
34.91141891479492 0 25.889495849609375 0.16103467345237732 -0.5 0.47269266843795776
33.440391540527344 0 26.510318756103516 0.21036653220653534 -0.5 0.4528978367646535
32.04368591308594 0 27.28398323059082 0.30877783298492434 -0.4 0.5135657787322998
30.737131118774414 0 28.20172691345215 0.3616172552108765 -0.4 0.4778352499008179
29.535526275634766 0 29.253149032592773 0.4103593945503235 -0.4 0.43669066429138187
28.452489852905273 0 30.42633819580078 0.45445200204849245 -0.4 0.390598201751709
27.50029182434082 0 31.707998275756836 0.49339548349380496 -0.4 0.34008010625839236
26.68971824645996 0 33.083614349365234 0.5267485857009888 -0.4 0.28570876121521
26.029956817626953 0 34.53759002685547 0.46177785595258075 -0.5 0.19008351365725198
25.52848243713379 0 36.053462982177734 0.5752397298812867 -0.4 0.1679072141647339
25.190975189208984 0 37.61404800415039 0.5898283243179322 -0.4 0.10581174790859223
25.021259307861328 0 39.20166778564453 0.5977339267730714 -0.4 0.042517393827438354
25.021259307861328 0 40.79833221435547 0.49905580282211304 -0.5 -0.017715580761432648
25.190975189208984 0 42.38595199584961 0.42372471945626394 -0.5714285714285714 -0.06056708523205348
25.52848243713379 0 43.946537017822266 0.4840340713659922 -0.4999999999999999 -0.12280699610710144
26.029956817626953 0 45.46240997314453 0.4682383338610331 -0.5 -0.17356093724568683
26.68971824645996 0 46.916385650634766 0.3832605140549796 -0.5714285714285714 -0.1905843104634966
27.50029182434082 0 48.29199981689453 0.4209699730078379 -0.5 -0.2686164975166321
28.452489852905273 0 49.57366180419922 0.39003291726112366 -0.5 -0.31184109052022296
29.535526275634766 0 50.74685287475586 0.35467662413914997 -0.5 -0.3515323996543884
30.737131118774414 0 51.798274993896484 0.2702586054801941 -0.5714285714285714 -0.33192060674939833
32.04368591308594 0 52.71601486206055 0.27235428988933563 -0.5 -0.4185614287853241
33.440391540527344 0 53.489681243896484 0.22632098197937012 -0.5 -0.4451396862665812
34.91141891479492 0 54.110504150390625 0.15233432395117621 -0.5714285714285714 -0.40000656672886437
36.44009780883789 0 54.571449279785156 0.12711210052172342 -0.5 -0.4829213619232178
38.009117126464844 0 54.86729431152344 0.07506059358517328 -0.5 -0.4936967094739278
39.60069274902344 0 54.99468231201172 0.018993098820958818 -0.5714285714285714 -0.4276099375316075
41.19679260253906 0 54.952178955078125 -0.030994427700837452 -0.5 -0.4984073340892792
42.77933120727539 0 54.74026107788086 -0.08379629005988438 -0.5 -0.492289255062739
44.330379486083984 0 54.361331939697266 -0.13564870754877725 -0.5 -0.4805933435757955
45.83236312866211 0 53.819679260253906 -0.15939786178725104 -0.5714285714285714 -0.39724467481885634
47.26826477050781 0 53.12144470214844 -0.23417259256045023 -0.5 -0.44105978806813556
48.62181091308594 0 52.274539947509766 -0.27972773710886634 -0.5 -0.41367007295290625
49.87767028808594 0 51.2885627746582 -0.27609725509371075 -0.5714285714285714 -0.32707996879305157
51.02161407470703 0 50.174678802490234 -0.36084950963656104 -0.5 -0.34519293904304504
52.04067611694336 0 48.94551086425781 -0.3954969843228658 -0.5 -0.30488141377766925
52.923309326171875 0 47.614986419677734 -0.36485427618026733 -0.5714285714285714 -0.22381323150226046
53.659523010253906 0 46.19818115234375 -0.4510067105293274 -0.5 -0.21439092854658762
54.240962982177734 0 44.711151123046875 -0.47124003370602924 -0.5 -0.16523728271325427
54.66105270385742 0 43.170738220214844 -0.48613401254018146 -0.5 -0.11421143760283788
57.679439544677734 0 22.3241024017334 0.18150879442691803 -0.75 -0.17184646427631378
17.677669525146484 0 -17.677669525146484 0.18462734222412108 -0.7333333333333333 -0.19233853022257485
57.679439544677734 50 22.3241024017334 0.22193940786214977 0.6923076923076923 -0.2130203338769766
17.677669525146484 50 -17.677669525146484 0.1473073831626347 0.7857142857142857 -0.1555693703038352
15 50 40 -0.3331474463144938 0.6666666666666666 0.009087489710913764
15 0 40 -0.39983270168304447 -0.6000000000000001 0.008178740739822412
15.083614349365234 25 42.04297637939453 -0.9958217144012451 1.1753323296982265E-17 0.08165063709020615
15.083614349365234 0 42.04297637939453 -0.49735389153162635 -0.5 0.0476181407769521
15.33389949798584 25 44.07228469848633 -0.9858186841011047 0 0.1627550944685936
15.33389949798584 0 44.07228469848633 -0.5901589632034302 -0.4 0.10572256147861481
15.749180793762207 25 46.0743522644043 -0.9692213535308838 -1.15955534843888E-17 0.24277085065841675
15.749180793762207 0 46.0743522644043 -0.48295466105143225 -0.5 0.12799679736296335
16.326679229736328 25 48.035789489746094 -0.946140706539154 0 0.321162685751915
16.326679229736328 0 48.035789489746094 -0.47087959448496497 -0.5 0.16703527669111887
17.06253433227539 25 49.94347381591797 -0.9167311489582062 4.265464692981564E-17 0.397406205534935
17.06253433227539 0 49.94347381591797 -0.45565474033355713 -0.5 0.2049564222494761
17.951820373535156 25 51.78464126586914 -0.8811894357204437 -2.0414193272173115E-17 0.470991387963295
17.951820373535156 0 51.78464126586914 -0.5248583197593689 -0.40000000000000013 0.28980788588523865
18.98859214782715 25 53.54698181152344 -0.839753270149231 -4.082838654434623E-17 0.541426032781601
18.98859214782715 0 53.54698181152344 -0.41618339220682776 -0.5 0.2764412462711334
20.165912628173828 25 55.21870422363281 -0.7926998436450958 1.9364512103918156E-17 0.6082389652729034
20.165912628173828 0 55.21870422363281 -0.39220092693964637 -0.5 0.3095267415046692
21.475906372070312 25 56.78862762451172 -0.7403439283370972 0 0.6709832847118378
21.475906372070312 0 56.78862762451172 -0.36559497316678363 -0.5 0.3405417700608571
22.90981101989746 25 58.246246337890625 -0.6830357015132904 0 0.729239284992218
22.90981101989746 0 58.246246337890625 -0.336543470621109 -0.5 0.36927884817123413
24.458036422729492 25 59.58181381225586 -0.6211585104465485 0 0.7826172709465027
24.458036422729492 0 59.58181381225586 -0.36628892421722414 -0.4 0.4746549129486084
26.1102237701416 25 60.78639221191406 -0.5551263093948364 -1.2342719261928349E-17 0.8307601809501648
26.1102237701416 0 60.78639221191406 -0.27189627289772034 -0.5 0.4191667834917704
27.855321884155273 25 61.8519287109375 -0.48538075387477875 0 0.8733459711074829
27.855321884155273 0 61.8519287109375 -0.2367329994837443 -0.5 0.43998392422993976
29.681659698486328 25 62.77129364013672 -0.4123883843421936 1.0649531281776537E-17 0.9100898206233978
29.681659698486328 0 62.77129364013672 -0.19998617470264435 -0.5 0.4578579465548197
31.577016830444336 25 63.53833770751953 -0.3366374969482422 0 0.9407459199428558
31.577016830444336 0 63.53833770751953 -0.19428194165229798 -0.4 0.5672031283378601
33.528717041015625 25 64.1479263305664 -0.2586347758769989 0 0.9651091992855072
33.528717041015625 0 64.1479263305664 -0.12273406485716501 -0.5 0.4843188325564066
35.523704528808594 25 64.59599304199219 -0.17890199273824692 0 0.9830166697502136
35.523704528808594 0 64.59599304199219 -0.0827455222606659 -0.5 0.49272868037223816
37.54863739013672 25 64.87952423095703 -0.09797250665724277 2.713130075297392E-18 0.994348555803299
37.54863739013672 0 64.87952423095703 -0.04220347975691159 -0.5 0.49784258008003235
39.5899658203125 25 64.99663543701172 -0.016387661918997765 0 0.9990290999412537
39.5899658203125 0 64.99663543701172 -0.0016549564898014069 -0.4 0.5995516061782837
41.634037017822266 25 64.94654083251953 0.06530680134892464 1.1605787914381047E-18 0.9970269501209259
41.634037017822266 0 64.94654083251953 0.03945444400111834 -0.5 0.4980679949124654
43.667179107666016 25 64.72957611083984 0.14656441658735275 0 0.9883554875850677
43.667179107666016 0 64.72957611083984 0.0800241008400917 -0.5 0.49317798018455505
45.67578887939453 25 64.34718322753906 0.22684162855148315 -5.828611057580172E-17 0.973072737455368
45.67578887939453 0 64.34718322753906 0.1200584570566813 -0.4999999999999999 0.4849890073140462
47.64643478393555 25 63.80193328857422 0.30560146272182465 0 0.951280951499939
47.64643478393555 0 63.80193328857422 0.15928972760836282 -0.49999999999999983 0.4735558728377024
49.5659294128418 25 63.097469329833984 0.38231708109378815 6.078971497475882E-17 0.9231258630752563
49.5659294128418 0 63.097469329833984 0.236946576833725 -0.4 0.5507460236549377
51.42143630981445 25 62.23849868774414 0.45647530257701874 -4.669231181721901E-17 0.888795793056488
51.42143630981445 0 62.23849868774414 0.23430041472117105 -0.4999999999999999 0.44128413001696265
53.20054244995117 25 61.230770111083984 0.5275800675153732 -5.3272540207523247E-17 0.848520427942276
53.20054244995117 0 61.230770111083984 0.2695780644814173 -0.49999999999999983 0.42066141963005066
54.89134979248047 25 60.08102798461914 0.5951557755470276 5.3272540207523247E-17 0.802569180727005
54.89134979248047 0 60.08102798461914 0.3030524750550588 -0.49999999999999983 0.3972248435020447
56.482547760009766 25 58.796958923339844 0.6587503850460052 5.949642360156957E-17 0.7512494027614594
56.482547760009766 0 58.796958923339844 0.4013996481895447 -0.4 0.44535738229751587
57.9634895324707 25 57.38715362548828 0.7179384827613831 3.535563388024229E-17 0.6949043571949005
57.9634895324707 0 57.38715362548828 0.36370941003163654 -0.5 0.34255488713582355
59.32426834106445 25 55.86104202270508 0.7723241448402405 3.781360658498103E-17 0.6339109838008881
59.32426834106445 0 55.86104202270508 0.3904861807823181 -0.5000000000000001 0.3116872211297353
60.5557861328125 25 54.22883224487305 0.8215436041355133 -3.781360658498103E-17 0.5686772465705872
60.5557861328125 0 54.22883224487305 0.41465093692143756 -0.5 0.2787346045176188
61.64979934692383 25 52.50144577026367 0.8652676045894623 1.9373408155679293E-18 0.49963952600955963
61.64979934692383 0 52.50144577026367 0.52325040102005 -0.4 0.29270099401474
62.598995208740234 25 50.690433502197266 0.9032036662101746 6.210067492583219E-17 0.4272596538066864
62.598995208740234 0 50.690433502197266 0.4545163114865621 -0.5000000000000001 0.20746878286202747
63.39702224731445 25 48.80791091918945 0.9350980520248413 -4.361266325130992E-17 0.3520217537879944
63.39702224731445 0 48.80791091918945 0.46995027860005695 -0.5000000000000001 0.16963227093219757
64.03854370117188 25 46.86647033691406 0.960737407207489 4.338056740050238E-17 0.2744291126728058
64.03854370117188 0 46.86647033691406 0.4822406768798828 -0.5000000000000001 0.13066105544567108
64.5192642211914 25 44.87910079956055 0.9799502193927765 0 0.1950007602572441
64.5192642211914 0 44.87910079956055 0.4913052717844645 -0.5000000000000002 0.09081582228342691
64.83597564697266 25 42.859092712402344 0.9926079511642456 -1.0093286951129606E-16 0.11426801607012749
64.83597564697266 0 42.859092712402344 0.5965001225471497 -0.4 0.06043573021888733
64.9865493774414 25 40.8199577331543 0.9986259639263153 9.396845873985279E-17 0.032770915888249874
64.9865493774414 0 40.8199577331543 0.499536524216334 -0.5000000000000001 0.009573507433136303
64.96998596191406 25 38.77534103393555 0.9979639649391174 -1.0286297525377285E-16 -0.048945398069918156
64.96998596191406 0 38.77534103393555 0.49864810705184937 -0.5 -0.03128013418366511
64.78639221191406 25 36.738914489746094 0.9906263947486877 -8.584973617301899E-17 -0.1303343065083027
64.78639221191406 0 36.738914489746094 0.49442414442698157 -0.4999999999999998 -0.07192453617850939
64.43700408935547 25 34.72430419921875 0.9766623675823212 1.4350830783146858E-16 -0.21085137873888016
64.43700408935547 0 34.72430419921875 0.5842714786529541 -0.4 -0.13450538218021393
63.92414474487305 25 32.74497985839844 0.9561652839183807 -7.794462252175592E-18 -0.28995802998542786
63.92414474487305 0 32.74497985839844 0.4761047462622324 -0.5 -0.15150132775306702
63.25125503540039 25 30.81418800354004 0.9292722344398499 4.569330263038157E-18 -0.36712510883808136
63.25125503540039 0 30.81418800354004 0.4621318380037943 -0.5 -0.18990142146746317
62.42283248901367 25 28.944841384887695 0.8961631059646606 9.596075964113371E-18 -0.441836416721344
62.42283248901367 0 28.944841384887695 0.4450676441192627 -0.5 -0.22703122595945993
61.44442367553711 25 27.149444580078125 0.8570593595504761 -6.924604634552245E-17 -0.5135921984910965
61.44442367553711 0 27.149444580078125 0.5100315570831299 -0.39999999999999997 -0.31517085433006287
60.322566986083984 25 25.44000816345215 0.8122225999832153 -8.926263485248352E-17 -0.581912487745285
60.322566986083984 0 25.44000816345215 0.40214188893636066 -0.49999999999999983 -0.2964966793855031
59.06476593017578 25 23.827966690063477 0.7619527578353882 4.370939706086432E-17 -0.6463402509689331
59.06476593017578 0 23.827966690063477 0.3047811031341553 -0.5999999999999999 -0.25853610038757324
59.06476593017578 50 23.827966690063477 0.38538527488708496 0.4999999999999998 -0.3179726004600525
60.322566986083984 50 25.44000816345215 0.4100807110468546 0.4999999999999999 -0.28541580835978186
61.44442367553711 50 27.149444580078125 0.5184396743774414 0.4 -0.30113978385925294
62.42283248901367 50 28.944841384887695 0.45109546184539795 0.5 -0.21480519076188404
63.25125503540039 50 30.81418800354004 0.4671403964360555 0.5 -0.17722368737061817
63.92414474487305 50 32.74497985839844 0.48006053765614826 0.5 -0.13845670223236084
64.43700408935547 50 34.72430419921875 0.5877233624458313 0.3999999999999999 -0.11851627230644227
64.78639221191406 50 36.738914489746094 0.4962022503217061 0.49999999999999983 -0.05840977032979329
64.96998596191406 50 38.77534103393555 0.49931585788726807 0.5000000000000001 -0.017665263886253037
64.9865493774414 50 40.8199577331543 0.49908943970998126 0.5 0.023197408455113568
64.83597564697266 50 42.859092712402344 0.5946294188499451 0.4000000000000002 0.07668588906526566
64.5192642211914 50 44.87910079956055 0.48864494760831195 0.5000000000000002 0.10418493797381718
64.03854370117188 50 46.86647033691406 0.4784967303276062 0.5 0.1437680572271347
63.39702224731445 50 48.80791091918945 0.4651477734247843 0.5000000000000001 0.18238948285579681
62.598995208740234 50 50.690433502197266 0.44868735472361243 0.5 0.2197908709446589
61.64979934692383 50 52.50144577026367 0.5150707244873047 0.4 0.30686643719673157
60.5557861328125 50 54.22883224487305 0.4068926672140757 0.5000000000000001 0.2899426420529683
59.32426834106445 50 55.86104202270508 0.38183796405792236 0.5 0.3222237626711527
57.9634895324707 50 57.38715362548828 0.35422907272974646 0.5 0.3523494700590769
56.482547760009766 50 58.796958923339844 0.38910081386566164 0.3999999999999999 0.45614190101623536
54.89134979248047 50 60.08102798461914 0.29210330049196875 0.49999999999999983 0.4053443372249603
53.20054244995117 50 61.230770111083984 0.2580020030339559 0.4999999999999999 0.42785900831222534
51.42143630981445 50 62.23849868774414 0.22217488785584766 0.5 0.44751166303952533
49.5659294128418 50 63.097469329833984 0.2218339204788208 0.3999999999999999 0.5570050120353699
47.64643478393555 50 63.80193328857422 0.1463117351134618 0.49999999999999983 0.4777250786622365
45.67578887939453 50 64.34718322753906 0.10678317149480183 0.5 0.4880837301413218
43.667179107666016 50 64.72957611083984 0.06654031574726105 0.5 0.4951775074005127
41.634037017822266 50 64.94654083251953 0.025852357347806294 0.5 0.49895895520846045
39.5899658203125 50 64.99663543701172 -0.018010237812995912 0.4 0.5992833137512207
37.54863739013672 50 64.87952423095703 -0.05576902690033118 0.5 0.4965059757232666
35.523704528808594 50 64.59599304199219 -0.09615647047758102 0.5 0.49028798937797546
33.528717041015625 50 64.1479263305664 -0.13590071101983386 0.5 0.4807903667291005
31.577016830444336 50 63.53833770751953 -0.20968305468559267 0.4 0.5616919755935669
29.681659698486328 50 62.77129364013672 -0.21240220963954926 0.5 0.45223187406857807
27.855321884155273 50 61.8519287109375 -0.24864775439103443 0.5 0.4333620468775431
26.1102237701416 50 60.78639221191406 -0.2832300364971161 0.5 0.41159339745839435
24.458036422729492 50 59.58181381225586 -0.37910128831863404 0.4 0.46448581218719487
22.90981101989746 50 58.246246337890625 -0.3464922308921814 0.5 0.3599604368209839
21.475906372070312 50 56.78862762451172 -0.3747489551703135 0.5 0.3304415146509806
20.165912628173828 50 55.21870422363281 -0.4004989167054494 0.5 0.29871222376823425
18.98859214782715 50 53.54698181152344 -0.42356987794240314 0.5 0.26498478651046753
17.951820373535156 50 51.78464126586914 -0.5325690031051636 0.40000000000000013 0.27538177967071537
17.06253433227539 50 49.94347381591797 -0.46107640862464905 0.5 0.19244978328545886
16.326679229736328 50 48.035789489746094 -0.475261112054189 0.5 0.15412740906079608
15.749180793762207 50 46.0743522644043 -0.4862666924794515 0.5 0.11477405329545338
15.33389949798584 50 44.07228469848633 -0.5928234577178956 0.4 0.08958355188369752
15.083614349365234 50 42.04297637939453 -0.39832868576049807 0.6000000000000001 0.03266025483608246
15 0 25 -0.052631578945848655 -0.8421052631578947 0.10526315789473684
15 50 25 -0.10526315789397696 0.8421052631578947 0.05263157894736843
-8.881784197001252E-15 0 25 -0.010223686693294157 -0.625 0.37479086220264435
-8.881784197001252E-15 50 25 -0.009087721503546167 0.5555555555555556 0.4442585441801283
16.173904418945312 25 -19.063180923461914 0.6464149355888367 0 -0.7618893086910248
16.173904418945312 0 -19.063180923461914 0.31801024079322815 -0.5 -0.38535417119661963
14.561942100524902 25 -20.3211669921875 0.5819904208183289 6.498496879792837E-18 -0.812166690826416
14.561942100524902 0 -20.3211669921875 0.28545501828193665 -0.5 -0.4100533922513326
12.852568626403809 25 -21.443214416503906 0.5136726796627045 -1.1335432754427958E-17 -0.857011079788208
12.852568626403809 0 -21.443214416503906 0.30118829011917114 -0.4 -0.5184114694595338
11.057217597961426 25 -22.421817779541016 0.4419187009334564 -5.667716377213979E-18 -0.8961224853992462
11.057217597961426 0 -22.421817779541016 0.2148464520772298 -0.5 -0.45107579231262207
9.187898635864258 25 -23.250431060791016 0.36720849573612213 9.59804244815628E-18 -0.9292392432689667
9.187898635864258 0 -23.250431060791016 0.2127185344696045 -0.4 -0.5605494379997253
7.257116794586182 25 -23.923507690429688 0.29004184901714325 0 -0.9561398327350616
7.257116794586182 0 -23.923507690429688 0.13849861919879913 -0.5 -0.48004843791325885
5.2777886390686035 25 -24.43655014038086 0.21093495190143585 0 -0.9766443073749542
5.2777886390686035 0 -24.43655014038086 0.09880529840787251 -0.5 -0.48976104458173114
3.2631547451019287 25 -24.786121368408203 0.13041700050234795 0 -0.9906154870986938
3.2631547451019287 0 -24.786121368408203 0.07014122307300567 -0.4 -0.5954368591308594
1.2266919612884521 25 -24.969886779785156 0.04902662802487612 0 -0.9979599416255951
1.2266919612884521 0 -24.969886779785156 0.017705732956528664 -0.5 -0.4993144075075785
-0.8179770112037659 25 -24.986614227294922 -0.03269170876592398 0 -0.9986284971237183
-0.8179770112037659 0 -24.986614227294922 -0.023157996125519276 -0.5 -0.499091237783432
-2.8571741580963135 25 -24.83619499206543 -0.11419135332107544 -2.6149312185874106E-17 -0.9926167130470276
-2.8571741580963135 0 -24.83619499206543 -0.07664017081260682 -0.4 -0.594635283946991
-4.877257823944092 25 -24.51963233947754 -0.19492711871862411 0 -0.9799648225307465
-4.877257823944092 0 -24.51963233947754 -0.10414838790893555 -0.4999999999999999 -0.48865271608034766
-6.864715576171875 25 -24.039045333862305 -0.27435892075300217 3.462582455776907E-17 -0.9607574045658112
-6.864715576171875 0 -24.039045333862305 -0.17247991859912873 -0.4 -0.5742085933685303
-8.806251525878906 25 -23.397647857666016 -0.351955384016037 0 -0.9351229965686798
-8.806251525878906 0 -23.397647857666016 -0.1823566307624181 -0.5 -0.46516063809394836
-10.68887710571289 25 -22.5997314453125 -0.4271974265575409 -9.242479413304103E-18 -0.9032330811023712
-10.68887710571289 0 -22.5997314453125 -0.2197601149479548 -0.5 -0.4487024148305257
-12.5 25 -21.650634765625 -0.4995817393064499 0 -0.8653009533882141
-12.5 0 -21.650634765625 -0.3068322241306305 -0.4 -0.5150910973548889
-14.227503776550293 25 -20.556705474853516 -0.5686240792274475 0 -0.8215803802013397
-14.227503776550293 0 -20.556705474853516 -0.28991644581158954 -0.5 -0.4069113234678904
-15.859831809997559 25 -19.32526206970215 -0.6338625848293304 0 -0.7723638117313385
-15.859831809997559 0 -19.32526206970215 -0.3221999704837799 -0.5 -0.3818580110867818
-17.386066436767578 25 -17.964540481567383 -0.6948608756065369 0 -0.7179805040359497
-17.386066436767578 0 -17.964540481567383 -0.4227937698364258 -0.4 -0.425100314617157
-18.795995712280273 25 -16.483644485473633 -0.7512108683586121 0 -0.6587942540645599
-18.795995712280273 0 -16.483644485473633 -0.3800993959108988 -0.5 -0.324272741874059
-20.080188751220703 25 -14.89248275756836 -0.8025356233119965 0 -0.5952009856700897
-20.080188751220703 0 -14.89248275756836 -0.4863935708999634 -0.4 -0.3505511999130249
-21.23005485534668 25 -13.201696395874023 -0.8484917879104614 0 -0.5276261121034622
-21.23005485534668 0 -13.201696395874023 -0.4278450906276703 -0.5 -0.25802507003148395
-22.23790168762207 25 -11.42259693145752 -0.8887719511985779 0 -0.4565216600894928
-22.23790168762207 0 -11.42259693145752 -0.4475001394748688 -0.5 -0.22219807406266529
-23.096988677978516 25 -9.567086219787598 -0.9231066703796387 0 -0.38236330449581146
-23.096988677978516 0 -9.567086219787598 -0.5569939494132996 -0.4 -0.22186161875724794
-23.80156707763672 25 -7.647575378417969 -0.9512662291526794 0 -0.3056471198797226
-23.80156707763672 0 -7.647575378417969 -0.4777180850505829 -0.5 -0.14633449912071228
-24.346923828125 25 -5.676906585693359 -0.97306227684021 0 -0.2268863022327423
-24.346923828125 0 -5.676906585693359 -0.4880788425604502 -0.5 -0.10680540899435678
-24.729412078857422 25 -3.668261766433716 -0.9883490204811096 0 -0.14660772681236267
-24.729412078857422 0 -3.668261766433716 -0.5942095160484314 -0.4 -0.07987421154975892
-24.94647216796875 25 -1.6350783109664917 -0.9970241785049438 0 -0.06534841656684875
-24.94647216796875 0 -1.6350783109664917 -0.4989578624566396 -0.5 -0.025873010357220966
-24.996652603149414 25 0.4090432822704315 -0.9990296959877014 0 0.016348043456673622
-24.996652603149414 0 0.4090432822704315 -0.5992839932441711 -0.4 0.017986680567264556
-24.87961769104004 25 2.4504284858703613 -0.9943521916866302 0 0.0979351419955492
-24.87961769104004 0 2.4504284858703613 -0.49650803208351135 -0.5 0.05575054200987021
-24.596149444580078 25 4.47542142868042 -0.9830229580402374 0 0.17886710166931152
-24.596149444580078 0 4.47542142868042 -0.4902913371721903 -0.5 0.0961392397681872
-24.14814567565918 25 6.470476150512695 -0.9651177823543549 0 0.258602537214756
-24.14814567565918 0 6.470476150512695 -0.5769538044929504 -0.4 0.16306178271770477
-23.53860092163086 25 8.422245979309082 -0.9407564401626587 0 0.33660803735256195
-23.53860092163086 0 8.422245979309082 -0.468082050482432 -0.5 0.17472138504187265
-22.771595001220703 25 10.317675590515137 -0.9101018607616425 0 0.4123617857694626
-22.771595001220703 0 10.317675590515137 -0.45223800341288245 -0.5 0.2123891512552897
-21.852258682250977 25 12.144084930419922 -0.8733591437339783 0 0.48535703122615814
-21.852258682250977 0 12.144084930419922 -0.5200424551963806 -0.4 0.2983633577823639
-20.786741256713867 25 13.88925552368164 -0.8307740688323975 0 0.5551054775714874
-20.786741256713867 0 13.88925552368164 -0.41160038113594055 -0.5 0.2832198639710744
-19.582168579101562 25 15.54151439666748 -0.7826314866542816 0 0.6211405396461487
-19.582168579101562 0 15.54151439666748 -0.4644943594932556 -0.4 0.3790907859802246
-18.246601104736328 25 17.089807510375977 -0.729253500699997 0 0.6830204427242279
-18.246601104736328 0 17.089807510375977 -0.35996752977371216 -0.5 0.3464848200480143
-16.78897476196289 25 18.523778915405273 -0.6709971725940704 2.733917289526972E-17 0.7403312921524048
-16.78897476196289 0 18.523778915405273 -0.3304484188556671 -0.5 0.3747428556283315
-15.219036102294922 25 19.833833694458008 -0.6082521677017212 0 0.7926896810531616
-15.219036102294922 0 19.833833694458008 -0.35846250057220463 -0.4 0.48059283494949345
-13.547289848327637 25 21.01120948791504 -0.5414382517337799 -2.1549334329687118E-17 0.8397453427314758
-13.547289848327637 0 21.01120948791504 -0.26499080657958984 -0.5 0.4235660930474599
-11.784918785095215 25 22.048030853271484 -0.47100238502025604 0 0.8811835050582886
-11.784918785095215 0 22.048030853271484 -0.22949020067850748 -0.5 0.44380469123522437
-9.94371223449707 25 22.937362670898438 -0.39741574227809906 0 0.9167269766330719
-9.94371223449707 0 22.937362670898438 -0.2309453070163727 -0.4 0.5532893538475037
-8.03598690032959 25 23.673254013061523 -0.3211705684661865 -2.6513871085614668E-18 0.9461379945278168
-8.03598690032959 0 23.673254013061523 -0.1541312038898468 -0.5 0.47525986035664874
-6.074504375457764 25 24.250782012939453 -0.24277690798044205 0 0.9692197740077972
-6.074504375457764 0 24.250782012939453 -0.1377323091030121 -0.4 0.583519184589386
-4.072386741638184 25 24.66608238220215 -0.1627592034637928 1.6007577707430265E-17 0.9858179688453674
-4.072386741638184 0 24.66608238220215 -0.07465484738349915 -0.5 0.49401925007502234
-2.043026924133301 25 24.9163818359375 -0.08165271207690239 0 0.9958215057849884
-2.043026924133301 0 24.9163818359375 -0.03266108483076096 -0.6000000000000001 0.39832860231399536
-2.043026924133301 50 24.9163818359375 -0.047619350254535675 0.5 0.49735376238822937
-4.072386741638184 50 24.66608238220215 -0.08810435608029366 0.5 0.49179871877034503
-6.074504375457764 50 24.250782012939453 -0.1535999804735184 0.4 0.5795445442199707
-8.03598690032959 50 23.673254013061523 -0.16703936457633972 0.5 0.470878134171168
-9.94371223449707 50 22.937362670898438 -0.2459535837173462 0.4 0.5467830181121827
-11.784918785095215 50 22.048030853271484 -0.24151218434174854 0.5 0.43737881382306415
-13.547289848327637 50 21.01120948791504 -0.27644744515419006 0.5 0.4161792496840159
-15.219036102294922 50 19.833833694458008 -0.3714401006698609 0.4 0.47063478231430056
-16.78897476196289 50 18.523778915405273 -0.3405487537384033 0.5 0.36558843652407325
-18.246601104736328 50 17.089807510375977 -0.3692859709262848 0.5 0.33653562267621356
-19.582168579101562 50 15.54151439666748 -0.47466342449188237 0.4 0.36627786159515385
-20.786741256713867 50 13.88925552368164 -0.4191736876964569 0.5 0.27188561360041297
-21.852258682250977 50 12.144084930419922 -0.5279885172843933 0.4 0.2840650796890259
-22.771595001220703 50 10.317675590515137 -0.45786385734875995 0.5 0.19997263451417285
-23.53860092163086 50 8.422245979309082 -0.4726743896802266 0.5 0.16188665231068927
-24.14814567565918 50 6.470476150512695 -0.5811875343322754 0.4 0.14726126194000244
-24.596149444580078 50 4.47542142868042 -0.49273162086804706 0.5 0.08272786190112431
-24.87961769104004 50 2.4504284858703613 -0.4978441596031189 0.5 0.042184599985678986
-24.996652603149414 50 0.4090432822704315 -0.5995516419410706 0.4 0.0016309715807437898
-24.94647216796875 50 -1.6350783109664917 -0.4980663160483042 0.5 -0.039475406209627785
-24.729412078857422 50 -3.668261766433716 -0.5918093085289001 0.4 -0.0960550606250763
-24.346923828125 50 -5.676906585693359 -0.4849834342797597 0.5 -0.12008089323838551
-23.80156707763672 50 -7.647575378417969 -0.47354814410209656 0.5 -0.15931262075901031
-23.096988677978516 50 -9.567086219787598 -0.5507340550422669 0.4 -0.23697434663772585
-22.23790168762207 50 -11.42259693145752 -0.4412718117237091 0.5 -0.23432358602682749
-21.23005485534668 50 -13.201696395874023 -0.42064669728279114 0.5 -0.2696010420719782
-20.080188751220703 50 -14.89248275756836 -0.4766491770744324 0.4 -0.3636899828910828
-18.795995712280273 50 -16.483644485473633 -0.3711114724477132 0.5 -0.33452151219050086
-17.386066436767578 50 -17.964540481567383 -0.4110392808914185 0.4 -0.43647629022598267
-15.859831809997559 50 -19.32526206970215 -0.31166261434555054 0.5 -0.39050580064455664
-14.227503776550293 50 -20.556705474853516 -0.2787076334158579 0.5 -0.4146690567334493
-12.5 50 -21.650634765625 -0.2926658630371094 0.4 -0.523270046710968
-10.68887710571289 50 -22.5997314453125 -0.20743731160958606 0.5 -0.45453066627184546
-8.806251525878906 50 -23.397647857666016 -0.16959875325361887 0.5 -0.46996235847473145
-6.864715576171875 50 -24.039045333862305 -0.1567507863044739 0.4 -0.5787002921104432
-4.877257823944092 50 -24.51963233947754 -0.09077873080968857 0.4999999999999999 -0.49131210645039874
-2.8571741580963135 50 -24.83619499206543 -0.06038945317268372 0.4 -0.5965047717094422
-0.8179770112037659 50 -24.986614227294922 -0.009533712640404701 0.5 -0.49953725934028625
1.2266919612884521 50 -24.969886779785156 0.031320895068347454 0.5 -0.49864553411801654
3.2631547451019287 50 -24.786121368408203 0.08635917752981187 0.4 -0.5933017253875733
5.2777886390686035 50 -24.43655014038086 0.11212965349356332 0.5 -0.486883262793223
7.257116794586182 50 -23.923507690429688 0.15154322981834412 0.5 -0.47609139482180274
9.187898635864258 50 -23.250431060791016 0.22793166041374208 0.4 -0.5545376539230347
11.057217597961426 50 -22.421817779541016 0.2270722488562266 0.5 -0.44504669308662415
12.852568626403809 50 -21.443214416503906 0.3152189254760742 0.4 -0.510001826286316
14.561942100524902 50 -20.3211669921875 0.2965354025363922 0.5 -0.4021132985750834
16.173904418945312 50 -19.063180923461914 0.2585659742355347 0.6000000000000001 -0.30475572347640995
3 0 1 2
3 2 1 3
3 2 3 4
3 4 3 5
3 4 5 6
3 6 5 7
3 6 7 8
3 8 7 9
3 8 9 10
3 10 9 11
3 10 11 12
3 12 11 13
3 12 13 14
3 14 13 15
3 14 15 16
3 16 15 17
3 16 17 18
3 18 17 19
3 18 19 20
3 20 19 21
3 20 21 22
3 22 21 23
3 22 23 24
3 24 23 25
3 24 25 26
3 26 25 27
3 26 27 28
3 28 27 29
3 28 29 30
3 30 29 31
3 30 31 32
3 32 31 33
3 32 33 34
3 34 33 35
3 34 35 36
3 36 35 37
3 36 37 38
3 38 37 39
3 38 39 40
3 40 39 41
3 40 41 42
3 42 41 43
3 42 43 44
3 44 43 45
3 44 45 46
3 46 45 47
3 46 47 48
3 48 47 49
3 48 49 50
3 50 49 51
3 50 51 52
3 52 51 53
3 52 53 54
3 54 53 55
3 54 55 56
3 56 55 57
3 56 57 58
3 58 57 59
3 58 59 60
3 60 59 61
3 60 61 62
3 62 61 63
3 62 63 64
3 64 63 65
3 64 65 66
3 66 65 67
3 66 67 68
3 68 67 69
3 68 69 70
3 70 69 71
3 70 71 72
3 72 71 73
3 72 73 74
3 74 73 75
3 74 75 76
3 76 75 77
3 76 77 78
3 78 77 79
3 78 79 80
3 80 79 81
3 80 81 82
3 82 81 83
3 82 83 84
3 84 83 85
3 84 85 86
3 86 85 87
3 86 87 88
3 88 87 89
3 88 89 90
3 90 89 91
3 90 91 92
3 92 91 93
3 92 93 94
3 94 93 95
3 94 95 0
3 0 95 1
3 96 5 97
3 97 5 3
3 97 3 98
3 98 3 1
3 98 1 99
3 99 1 95
3 99 95 100
3 100 95 93
3 100 93 101
3 101 93 91
3 101 91 102
3 102 91 89
3 102 89 103
3 103 89 87
3 103 87 104
3 104 87 85
3 104 85 105
3 105 85 83
3 105 83 106
3 106 83 81
3 106 81 107
3 107 81 79
3 107 79 108
3 108 79 77
3 108 77 109
3 109 77 75
3 109 75 110
3 110 75 73
3 110 73 111
3 111 73 71
3 111 71 112
3 112 71 69
3 112 69 113
3 113 69 67
3 113 67 114
3 114 67 65
3 114 65 115
3 115 65 63
3 115 63 116
3 116 63 61
3 116 61 117
3 117 61 59
3 117 59 118
3 118 59 57
3 118 57 119
3 119 57 55
3 119 55 120
3 120 55 53
3 120 53 121
3 121 53 51
3 121 51 122
3 122 51 49
3 122 49 123
3 123 49 47
3 123 47 124
3 124 47 45
3 124 45 125
3 125 45 43
3 125 43 126
3 126 43 41
3 126 41 127
3 127 41 39
3 127 39 128
3 128 39 37
3 128 37 129
3 129 37 35
3 129 35 130
3 130 35 33
3 130 33 131
3 131 33 31
3 131 31 132
3 132 31 29
3 132 29 133
3 133 29 27
3 133 27 134
3 134 27 25
3 134 25 135
3 135 25 23
3 135 23 136
3 136 23 21
3 136 21 137
3 137 21 19
3 137 19 138
3 138 19 17
3 138 17 139
3 139 17 15
3 139 15 140
3 140 15 13
3 140 13 141
3 141 13 11
3 141 11 142
3 142 11 9
3 142 9 143
3 143 9 7
3 143 7 96
3 96 7 5
3 144 145 146
3 146 145 147
3 146 147 148
3 148 147 149
3 148 149 150
3 150 149 151
3 150 151 152
3 152 151 153
3 152 153 154
3 154 153 155
3 154 155 156
3 156 155 157
3 156 157 158
3 158 157 159
3 158 159 160
3 160 159 161
3 160 161 162
3 162 161 163
3 162 163 164
3 164 163 165
3 164 165 166
3 166 165 167
3 166 167 168
3 168 167 169
3 168 169 170
3 170 169 171
3 170 171 172
3 172 171 173
3 172 173 174
3 174 173 175
3 174 175 176
3 176 175 177
3 176 177 178
3 178 177 179
3 178 179 180
3 180 179 181
3 180 181 182
3 182 181 183
3 182 183 184
3 184 183 185
3 184 185 186
3 186 185 187
3 186 187 188
3 188 187 189
3 188 189 190
3 190 189 191
3 190 191 192
3 192 191 193
3 192 193 194
3 194 193 195
3 194 195 196
3 196 195 197
3 196 197 198
3 198 197 199
3 198 199 200
3 200 199 201
3 200 201 202
3 202 201 203
3 202 203 204
3 204 203 205
3 204 205 206
3 206 205 207
3 206 207 208
3 208 207 209
3 208 209 210
3 210 209 211
3 210 211 212
3 212 211 213
3 212 213 214
3 214 213 215
3 214 215 216
3 216 215 217
3 216 217 218
3 218 217 219
3 218 219 220
3 220 219 221
3 220 221 222
3 222 221 223
3 222 223 224
3 224 223 225
3 224 225 226
3 226 225 227
3 226 227 228
3 228 227 229
3 228 229 230
3 230 229 231
3 230 231 232
3 232 231 233
3 232 233 234
3 234 233 235
3 234 235 236
3 236 235 237
3 236 237 238
3 238 237 239
3 238 239 240
3 240 239 241
3 240 241 242
3 242 241 243
3 242 243 244
3 244 243 245
3 244 245 246
3 246 245 247
3 246 247 248
3 248 247 249
3 248 249 250
3 250 249 251
3 250 251 252
3 252 251 253
3 252 253 254
3 254 253 255
3 254 255 256
3 256 255 257
3 256 257 258
3 258 257 259
3 258 259 260
3 260 259 261
3 260 261 144
3 144 261 145
3 262 149 263
3 263 149 147
3 263 147 264
3 264 147 145
3 264 145 265
3 265 145 261
3 265 261 266
3 266 261 259
3 266 259 267
3 267 259 257
3 267 257 268
3 268 257 255
3 268 255 269
3 269 255 253
3 269 253 270
3 270 253 251
3 270 251 271
3 271 251 249
3 271 249 272
3 272 249 247
3 272 247 273
3 273 247 245
3 273 245 274
3 274 245 243
3 274 243 275
3 275 243 241
3 275 241 276
3 276 241 239
3 276 239 277
3 277 239 237
3 277 237 278
3 278 237 235
3 278 235 279
3 279 235 233
3 279 233 280
3 280 233 231
3 280 231 281
3 281 231 229
3 281 229 282
3 282 229 227
3 282 227 283
3 283 227 225
3 283 225 284
3 284 225 223
3 284 223 285
3 285 223 221
3 285 221 286
3 286 221 219
3 286 219 287
3 287 219 217
3 287 217 288
3 288 217 215
3 288 215 289
3 289 215 213
3 289 213 290
3 290 213 211
3 290 211 291
3 291 211 209
3 291 209 292
3 292 209 207
3 292 207 293
3 293 207 205
3 293 205 294
3 294 205 203
3 294 203 295
3 295 203 201
3 295 201 296
3 296 201 199
3 296 199 297
3 297 199 197
3 297 197 298
3 298 197 195
3 298 195 299
3 299 195 193
3 299 193 300
3 300 193 191
3 300 191 301
3 301 191 189
3 301 189 302
3 302 189 187
3 302 187 303
3 303 187 185
3 303 185 304
3 304 185 183
3 304 183 305
3 305 183 181
3 305 181 306
3 306 181 179
3 306 179 307
3 307 179 177
3 307 177 308
3 308 177 175
3 308 175 309
3 309 175 173
3 309 173 310
3 310 173 171
3 310 171 311
3 311 171 169
3 311 169 312
3 312 169 167
3 312 167 313
3 313 167 165
3 313 165 314
3 314 165 163
3 314 163 315
3 315 163 161
3 315 161 316
3 316 161 159
3 316 159 317
3 317 159 157
3 317 157 318
3 318 157 155
3 318 155 319
3 319 155 153
3 319 153 320
3 320 153 151
3 320 151 262
3 262 151 149
3 321 322 323
3 323 322 324
3 325 326 327
3 327 326 328
3 327 328 329
3 329 328 330
3 329 330 331
3 331 330 332
3 331 332 333
3 333 332 334
3 333 334 335
3 335 334 336
3 335 336 337
3 337 336 338
3 337 338 339
3 339 338 340
3 339 340 341
3 341 340 342
3 341 342 343
3 343 342 344
3 343 344 345
3 345 344 346
3 345 346 347
3 347 346 348
3 347 348 349
3 349 348 350
3 349 350 351
3 351 350 352
3 351 352 353
3 353 352 354
3 353 354 355
3 355 354 356
3 355 356 357
3 357 356 358
3 357 358 359
3 359 358 360
3 359 360 361
3 361 360 362
3 361 362 363
3 363 362 364
3 363 364 365
3 365 364 366
3 365 366 367
3 367 366 368
3 367 368 369
3 369 368 370
3 369 370 371
3 371 370 372
3 371 372 373
3 373 372 374
3 373 374 375
3 375 374 376
3 375 376 377
3 377 376 378
3 377 378 379
3 379 378 380
3 379 380 381
3 381 380 382
3 381 382 383
3 383 382 384
3 383 384 385
3 385 384 386
3 385 386 387
3 387 386 388
3 387 388 389
3 389 388 390
3 389 390 391
3 391 390 392
3 391 392 393
3 393 392 394
3 393 394 395
3 395 394 396
3 395 396 397
3 397 396 398
3 397 398 399
3 399 398 400
3 399 400 401
3 401 400 402
3 401 402 403
3 403 402 404
3 403 404 405
3 405 404 406
3 405 406 407
3 407 406 408
3 407 408 409
3 409 408 410
3 409 410 411
3 411 410 412
3 411 412 413
3 413 412 414
3 413 414 415
3 415 414 416
3 415 416 417
3 417 416 418
3 417 418 419
3 419 418 420
3 419 420 321
3 321 323 419
3 419 323 421
3 419 421 417
3 417 421 422
3 417 422 415
3 415 422 423
3 415 423 413
3 413 423 424
3 413 424 411
3 411 424 425
3 411 425 409
3 409 425 426
3 409 426 407
3 407 426 427
3 407 427 405
3 405 427 428
3 405 428 403
3 403 428 429
3 403 429 401
3 401 429 430
3 401 430 399
3 399 430 431
3 399 431 397
3 397 431 432
3 397 432 395
3 395 432 433
3 395 433 393
3 393 433 434
3 393 434 391
3 391 434 435
3 391 435 389
3 389 435 436
3 389 436 387
3 387 436 437
3 387 437 385
3 385 437 438
3 385 438 383
3 383 438 439
3 383 439 381
3 381 439 440
3 381 440 379
3 379 440 441
3 379 441 377
3 377 441 442
3 377 442 375
3 375 442 443
3 375 443 373
3 373 443 444
3 373 444 371
3 371 444 445
3 371 445 369
3 369 445 446
3 369 446 367
3 367 446 447
3 367 447 365
3 365 447 448
3 365 448 363
3 363 448 449
3 363 449 361
3 361 449 450
3 361 450 359
3 359 450 451
3 359 451 357
3 357 451 452
3 357 452 355
3 355 452 453
3 355 453 353
3 353 453 454
3 353 454 351
3 351 454 455
3 351 455 349
3 349 455 456
3 349 456 347
3 347 456 457
3 347 457 345
3 345 457 458
3 345 458 343
3 343 458 459
3 343 459 341
3 341 459 460
3 341 460 339
3 339 460 461
3 339 461 337
3 337 461 462
3 337 462 335
3 335 462 463
3 335 463 333
3 333 463 464
3 333 464 331
3 331 464 465
3 331 465 329
3 329 465 466
3 329 466 327
3 327 466 467
3 327 467 325
3 468 326 469
3 469 326 325
3 470 468 471
3 471 468 469
3 324 322 472
3 472 322 473
3 472 473 474
3 474 473 475
3 474 475 476
3 476 475 477
3 476 477 478
3 478 477 479
3 478 479 480
3 480 479 481
3 480 481 482
3 482 481 483
3 482 483 484
3 484 483 485
3 484 485 486
3 486 485 487
3 486 487 488
3 488 487 489
3 488 489 490
3 490 489 491
3 490 491 492
3 492 491 493
3 492 493 494
3 494 493 495
3 494 495 496
3 496 495 497
3 496 497 498
3 498 497 499
3 498 499 500
3 500 499 501
3 500 501 502
3 502 501 503
3 502 503 504
3 504 503 505
3 504 505 506
3 506 505 507
3 506 507 508
3 508 507 509
3 508 509 510
3 510 509 511
3 510 511 512
3 512 511 513
3 512 513 514
3 514 513 515
3 514 515 516
3 516 515 517
3 516 517 518
3 518 517 519
3 518 519 520
3 520 519 521
3 520 521 522
3 522 521 523
3 522 523 524
3 524 523 525
3 524 525 526
3 526 525 527
3 526 527 528
3 528 527 529
3 528 529 530
3 530 529 531
3 530 531 532
3 532 531 533
3 532 533 534
3 534 533 535
3 534 535 536
3 536 535 537
3 536 537 538
3 538 537 539
3 538 539 540
3 540 539 541
3 540 541 542
3 542 541 543
3 542 543 544
3 544 543 545
3 544 545 546
3 546 545 547
3 546 547 548
3 548 547 549
3 548 549 550
3 550 549 551
3 550 551 552
3 552 551 553
3 552 553 554
3 554 553 555
3 554 555 556
3 556 555 557
3 556 557 558
3 558 557 559
3 558 559 560
3 560 559 561
3 560 561 562
3 562 561 563
3 562 563 564
3 564 563 565
3 564 565 470
3 470 471 564
3 564 471 566
3 564 566 562
3 562 566 567
3 562 567 560
3 560 567 568
3 560 568 558
3 558 568 569
3 558 569 556
3 556 569 570
3 556 570 554
3 554 570 571
3 554 571 552
3 552 571 572
3 552 572 550
3 550 572 573
3 550 573 548
3 548 573 574
3 548 574 546
3 546 574 575
3 546 575 544
3 544 575 576
3 544 576 542
3 542 576 577
3 542 577 540
3 540 577 578
3 540 578 538
3 538 578 579
3 538 579 536
3 536 579 580
3 536 580 534
3 534 580 581
3 534 581 532
3 532 581 582
3 532 582 530
3 530 582 583
3 530 583 528
3 528 583 584
3 528 584 526
3 526 584 585
3 526 585 524
3 524 585 586
3 524 586 522
3 522 586 587
3 522 587 520
3 520 587 588
3 520 588 518
3 518 588 589
3 518 589 516
3 516 589 590
3 516 590 514
3 514 590 591
3 514 591 512
3 512 591 592
3 512 592 510
3 510 592 593
3 510 593 508
3 508 593 594
3 508 594 506
3 506 594 595
3 506 595 504
3 504 595 596
3 504 596 502
3 502 596 597
3 502 597 500
3 500 597 598
3 500 598 498
3 498 598 599
3 498 599 496
3 496 599 600
3 496 600 494
3 494 600 601
3 494 601 492
3 492 601 602
3 492 602 490
3 490 602 603
3 490 603 488
3 488 603 604
3 488 604 486
3 486 604 605
3 486 605 484
3 484 605 606
3 484 606 482
3 482 606 607
3 482 607 480
3 480 607 608
3 480 608 478
3 478 608 609
3 478 609 476
3 476 609 610
3 476 610 474
3 474 610 611
3 474 611 472
3 472 611 612
3 472 612 324
3 148 430 146
3 146 430 429
3 146 429 144
3 144 429 428
3 144 428 260
3 260 428 427
3 260 427 426
3 150 432 148
3 148 432 431
3 148 431 430
3 432 150 433
3 433 150 152
3 433 152 434
3 434 152 154
3 434 154 435
3 435 154 156
3 435 156 436
3 436 156 437
3 437 156 158
3 437 158 438
3 438 158 160
3 438 160 439
3 439 160 162
3 439 162 440
3 440 162 441
3 441 162 164
3 441 164 442
3 442 164 166
3 442 166 443
3 443 166 168
3 443 168 444
3 444 168 445
3 445 168 170
3 445 170 446
3 446 170 172
3 446 172 447
3 447 172 174
3 447 174 448
3 448 174 176
3 448 176 449
3 449 176 450
3 450 176 178
3 450 178 451
3 451 178 180
3 451 180 452
3 452 180 182
3 452 182 453
3 453 182 454
3 454 182 184
3 454 184 455
3 455 184 186
3 455 186 456
3 456 186 188
3 456 188 457
3 457 188 458
3 458 188 190
3 458 190 459
3 459 190 192
3 459 192 460
3 460 192 194
3 460 194 461
3 461 194 196
3 461 196 462
3 462 196 463
3 463 196 198
3 463 198 464
3 464 198 200
3 464 200 465
3 465 200 202
3 465 202 466
3 466 202 467
3 467 202 204
3 467 204 325
3 325 204 206
3 325 206 208
3 208 210 325
3 325 210 212
3 325 212 469
3 469 212 214
3 469 214 216
3 216 218 469
3 469 218 220
3 469 220 222
3 222 224 469
3 469 224 226
3 469 226 8
3 8 226 228
3 8 228 6
3 6 228 230
3 6 230 4
3 4 230 232
3 4 232 2
3 2 232 324
3 2 324 0
3 0 324 94
3 94 324 92
3 92 324 90
3 90 324 88
3 88 324 86
3 86 324 612
3 86 612 84
3 84 612 611
3 84 611 82
3 82 611 610
3 82 610 609
3 232 234 324
3 324 234 236
3 324 236 323
3 323 236 238
3 323 238 240
3 240 242 323
3 323 242 244
3 323 244 246
3 246 248 323
3 323 248 250
3 323 250 421
3 421 250 252
3 421 252 422
3 422 252 254
3 422 254 423
3 423 254 424
3 424 254 256
3 424 256 425
3 425 256 258
3 425 258 426
3 426 258 260
3 8 10 469
3 469 10 12
3 469 12 14
3 14 16 469
3 469 16 18
3 469 18 20
3 469 20 471
3 471 20 22
3 471 22 24
3 24 26 471
3 471 26 566
3 566 26 28
3 566 28 567
3 567 28 30
3 567 30 568
3 568 30 569
3 569 30 32
3 569 32 570
3 570 32 571
3 571 32 34
3 571 34 572
3 572 34 36
3 572 36 573
3 573 36 574
3 574 36 38
3 574 38 575
3 575 38 40
3 575 40 576
3 576 40 577
3 577 40 42
3 577 42 578
3 578 42 579
3 579 42 44
3 579 44 580
3 580 44 46
3 580 46 581
3 581 46 582
3 582 46 48
3 582 48 583
3 583 48 50
3 583 50 584
3 584 50 585
3 585 50 52
3 585 52 586
3 586 52 587
3 587 52 54
3 587 54 588
3 588 54 56
3 588 56 589
3 589 56 590
3 590 56 58
3 590 58 591
3 591 58 60
3 591 60 592
3 592 60 593
3 593 60 62
3 593 62 594
3 594 62 595
3 595 62 64
3 595 64 596
3 596 64 66
3 596 66 597
3 597 66 598
3 598 66 68
3 598 68 599
3 599 68 70
3 599 70 600
3 600 70 601
3 601 70 72
3 601 72 602
3 602 72 603
3 603 72 74
3 603 74 604
3 604 74 76
3 604 76 605
3 605 76 606
3 606 76 78
3 606 78 607
3 607 78 80
3 607 80 608
3 608 80 609
3 609 80 82
3 264 404 263
3 263 404 402
3 263 402 262
3 262 402 400
3 262 400 398
3 404 264 406
3 406 264 265
3 406 265 408
3 408 265 410
3 410 265 266
3 410 266 412
3 412 266 267
3 412 267 414
3 414 267 268
3 414 268 416
3 416 268 418
3 418 268 269
3 418 269 420
3 420 269 270
3 420 270 321
3 321 270 271
3 321 271 272
3 272 273 321
3 321 273 274
3 321 274 275
3 275 276 321
3 321 276 277
3 321 277 322
3 322 277 278
3 322 278 279
3 280 96 279
3 279 96 97
3 279 97 322
3 322 97 98
3 322 98 99
3 96 280 143
3 143 280 281
3 143 281 142
3 142 281 282
3 142 282 468
3 468 282 283
3 468 283 284
3 284 285 468
3 468 285 286
3 468 286 287
3 287 288 468
3 468 288 289
3 468 289 326
3 326 289 290
3 326 290 291
3 291 292 326
3 326 292 293
3 326 293 328
3 328 293 294
3 328 294 330
3 330 294 332
3 332 294 295
3 332 295 334
3 334 295 296
3 334 296 336
3 336 296 297
3 336 297 338
3 338 297 340
3 340 297 298
3 340 298 342
3 342 298 299
3 342 299 344
3 344 299 300
3 344 300 346
3 346 300 301
3 346 301 348
3 348 301 350
3 350 301 302
3 350 302 352
3 352 302 303
3 352 303 354
3 354 303 304
3 354 304 356
3 356 304 358
3 358 304 305
3 358 305 360
3 360 305 306
3 360 306 362
3 362 306 307
3 362 307 364
3 364 307 366
3 366 307 308
3 366 308 368
3 368 308 309
3 368 309 370
3 370 309 310
3 370 310 372
3 372 310 311
3 372 311 374
3 374 311 376
3 376 311 312
3 376 312 378
3 378 312 313
3 378 313 380
3 380 313 314
3 380 314 382
3 382 314 384
3 384 314 315
3 384 315 386
3 386 315 316
3 386 316 388
3 388 316 317
3 388 317 390
3 390 317 392
3 392 317 318
3 392 318 394
3 394 318 319
3 394 319 396
3 396 319 320
3 396 320 398
3 398 320 262
3 99 100 322
3 322 100 101
3 322 101 102
3 102 103 322
3 322 103 473
3 473 103 104
3 473 104 475
3 475 104 105
3 475 105 477
3 477 105 479
3 479 105 106
3 479 106 481
3 481 106 483
3 483 106 107
3 483 107 485
3 485 107 108
3 485 108 487
3 487 108 489
3 489 108 109
3 489 109 491
3 491 109 110
3 491 110 493
3 493 110 495
3 495 110 111
3 495 111 497
3 497 111 499
3 499 111 112
3 499 112 501
3 501 112 113
3 501 113 503
3 503 113 505
3 505 113 114
3 505 114 507
3 507 114 115
3 507 115 509
3 509 115 511
3 511 115 116
3 511 116 513
3 513 116 515
3 515 116 117
3 515 117 517
3 517 117 118
3 517 118 519
3 519 118 521
3 521 118 119
3 521 119 523
3 523 119 120
3 523 120 525
3 525 120 527
3 527 120 121
3 527 121 529
3 529 121 531
3 531 121 122
3 531 122 533
3 533 122 123
3 533 123 535
3 535 123 537
3 537 123 124
3 537 124 539
3 539 124 125
3 539 125 541
3 541 125 543
3 543 125 126
3 543 126 545
3 545 126 547
3 547 126 127
3 547 127 549
3 549 127 128
3 549 128 551
3 551 128 553
3 553 128 129
3 553 129 555
3 555 129 130
3 555 130 557
3 557 130 559
3 559 130 131
3 559 131 561
3 561 131 563
3 563 131 132
3 563 132 565
3 565 132 133
3 565 133 470
3 470 133 134
3 470 134 135
3 135 136 470
3 470 136 468
3 468 136 137
3 468 137 138
3 138 139 468
3 468 139 140
3 468 140 141
3 141 142 468
